<svg width="16" height="16" viewBox="0 0 16 16" fill="none" xmlns="http://www.w3.org/2000/svg">
<path d="M11.2335 0H4.76649C2.13823 0 0 2.13823 0 4.76649V11.2335C0 13.8618 2.13823 16 4.76649 16H11.2335C13.8618 16 16 13.8618 16 11.2335V4.76649C16 2.13823 13.8617 0 11.2335 0ZM14.3904 11.2335C14.3904 12.977 12.977 14.3904 11.2335 14.3904H4.76649C3.023 14.3904 1.6096 12.977 1.6096 11.2335V4.76649C1.6096 3.02297 3.023 1.6096 4.76649 1.6096H11.2335C12.977 1.6096 14.3904 3.02297 14.3904 4.76649V11.2335Z" fill="black"/>
<path d="M8.00145 3.86182C5.71966 3.86182 3.86328 5.7182 3.86328 7.99996C3.86328 10.2817 5.71966 12.1381 8.00145 12.1381C10.2832 12.1381 12.1396 10.2817 12.1396 7.99996C12.1396 5.71817 10.2832 3.86182 8.00145 3.86182ZM8.00145 10.5286C6.60495 10.5286 5.47288 9.39649 5.47288 7.99999C5.47288 6.60348 6.60498 5.47142 8.00145 5.47142C9.39795 5.47142 10.53 6.60348 10.53 7.99999C10.53 9.39646 9.39792 10.5286 8.00145 10.5286Z" fill="black"/>
<path d="M12.1478 4.88449C12.6955 4.88449 13.1394 4.44054 13.1394 3.8929C13.1394 3.34526 12.6955 2.90131 12.1478 2.90131C11.6002 2.90131 11.1562 3.34526 11.1562 3.8929C11.1562 4.44054 11.6002 4.88449 12.1478 4.88449Z" fill="black"/>
</svg>
