
<svg width="168" height="21" viewBox="0 0 168 21" fill="none" xmlns="http://www.w3.org/2000/svg">
<path d="M47.854 8.74576H45.4486C45.1352 7.95046 44.3814 7.38635 43.2101 7.38635C41.5153 7.38635 40.3024 8.6204 40.3024 10.7336C40.3024 12.6376 41.4738 14.102 43.2939 14.102C44.5906 14.102 45.2606 13.3702 45.5951 12.596H48.0217C47.4779 14.4162 46.0347 16.111 43.2524 16.111C40.2397 16.111 37.897 13.9563 37.897 10.714C37.897 7.78522 39.9475 5.40015 43.2312 5.40015C46.0974 5.39852 47.5406 7.28134 47.854 8.74576Z" fill="#039785"/>
<path d="M54.4892 5.39844C57.6272 5.39844 59.8446 7.69966 59.8446 10.7327C59.8446 13.6827 57.6061 16.1093 54.4892 16.1093C51.435 16.1093 49.1338 13.7665 49.1338 10.7327C49.1338 7.63698 51.4562 5.39844 54.4892 5.39844ZM54.4892 14.0172C56.267 14.0172 57.4807 12.5943 57.4807 10.7327C57.4807 8.95487 56.3509 7.46929 54.4892 7.46929C52.6902 7.46929 51.5189 8.87103 51.5189 10.7327C51.5189 12.6578 52.8783 14.0172 54.4892 14.0172Z" fill="#039785"/>
<path d="M70.6434 15.7543H68.321V14.5203H68.2584C67.4215 15.6916 66.3544 16.0889 65.288 16.0889C63.5932 16.0889 61.5647 15.0429 61.5647 11.6541V5.73376H63.9074V11.3822C63.9074 13.077 64.7231 14.018 65.9579 14.018C67.3808 14.018 68.3007 13.0135 68.3007 11.068V5.73376H70.6434V15.7543Z" fill="#039785"/>
<path d="M73.1357 5.73385H75.4581V6.98907H75.4996C76.2949 5.85921 77.4451 5.39929 78.5538 5.39929C80.6247 5.39929 82.4448 6.7587 82.4448 9.98058V15.7544H80.1021V10.1059C80.1021 8.3908 79.2864 7.47016 77.9474 7.47016C76.483 7.47016 75.4785 8.495 75.4785 10.4405V15.7544H73.1357V5.73385Z" fill="#039785"/>
<path d="M83.6831 5.73379H84.9383V2.53308H87.2811V5.73379H89.7703V7.70045H87.2811V12.1775C87.2811 13.5369 87.6995 13.9138 88.6616 13.9138C89.0589 13.9138 89.5196 13.83 89.8753 13.7462V15.6501C89.3527 15.7967 88.6828 15.8805 88.0975 15.8805C85.6083 15.8805 84.9383 14.3746 84.9383 12.3241V7.70045H83.6831V5.73379Z" fill="#039785"/>
<path d="M91.3208 0.691772H93.6635V15.7543H91.3208V0.691772Z" fill="#039785"/>
<path d="M105.61 10.6497C105.61 10.8589 105.61 11.1308 105.569 11.34H97.8281C97.8281 12.9086 99.2087 14.2689 100.82 14.2689C101.844 14.2689 102.535 13.8504 103.058 13.139H105.464C104.794 14.6661 103.35 16.1093 100.82 16.1093C97.7443 16.1093 95.4854 13.8496 95.4854 10.6489C95.4854 7.82511 97.4097 5.39771 100.569 5.39771C104.02 5.41968 105.61 8.09779 105.61 10.6497ZM97.8493 9.64524H103.267C103.121 8.30619 102.096 7.15598 100.569 7.15598C98.958 7.15598 97.9746 8.34852 97.8493 9.64524Z" fill="#039785"/>
<path d="M112.057 8.307C111.953 7.5752 111.408 7.0933 110.718 7.0933C109.902 7.0933 109.463 7.59554 109.463 8.16047C109.463 8.76691 109.776 9.18532 111.513 9.77141C113.668 10.4617 114.421 11.5704 114.421 12.9721C114.421 14.8134 113.04 16.1102 110.739 16.1102C108.334 16.1102 107.161 14.7923 106.973 12.9306H109.149C109.253 13.7674 109.756 14.395 110.802 14.395C111.68 14.395 112.182 13.8513 112.182 13.161C112.182 12.408 111.743 11.9269 110.09 11.362C108.207 10.7556 107.266 9.81374 107.266 8.2663C107.266 6.61384 108.563 5.40015 110.676 5.40015C112.831 5.40015 113.961 6.67652 114.212 8.30781H112.057V8.307Z" fill="#039785"/>
<path d="M120.929 8.307C120.824 7.5752 120.28 7.0933 119.59 7.0933C118.774 7.0933 118.335 7.59554 118.335 8.16047C118.335 8.76691 118.648 9.18532 120.385 9.77141C122.54 10.4617 123.293 11.5704 123.293 12.9721C123.293 14.8134 121.912 16.1102 119.611 16.1102C117.206 16.1102 116.033 14.7923 115.845 12.9306H118.021C118.126 13.7674 118.628 14.395 119.674 14.395C120.552 14.395 121.054 13.8513 121.054 13.161C121.054 12.408 120.615 11.9269 118.962 11.362C117.08 10.7556 116.139 9.81374 116.139 8.2663C116.139 6.61384 117.435 5.40015 119.548 5.40015C121.703 5.40015 122.833 6.67652 123.084 8.30781H120.929V8.307Z" fill="#039785"/>
<path d="M125.221 5.73385H126.099V7.554H126.14C126.726 6.36146 127.961 5.39929 129.529 5.39929C130.952 5.39929 132.353 6.21494 132.918 7.82588C133.567 6.15226 134.905 5.39929 136.621 5.39929C138.482 5.39929 140.449 6.59183 140.449 9.85522V15.7544H139.571V9.72987C139.571 7.78437 138.671 6.2361 136.433 6.2361C134.697 6.2361 133.274 7.28212 133.274 9.95942V15.7544H132.395V9.98058C132.395 7.47015 131.224 6.2361 129.445 6.2361C127.458 6.2361 126.098 7.659 126.098 10.399V15.7544H125.22V5.73385H125.221Z" fill="#039785"/>
<path d="M142.757 1.59131H144.054V2.93036H142.757V1.59131ZM142.966 5.73383H143.844V15.7544H142.966V5.73383Z" fill="#039785"/>
<path d="M146.649 0.670654H147.527V15.7536H146.649V0.670654Z" fill="#039785"/>
<path d="M159.411 10.7335V10.8801H150.415C150.478 13.4947 152.402 15.336 154.683 15.336C156.398 15.336 157.361 14.6245 158.134 13.432H159.222C158.406 14.8549 156.962 16.1305 154.724 16.1305C151.649 16.1305 149.473 13.7877 149.473 10.7335C149.473 7.70052 151.586 5.39929 154.431 5.39929C157.549 5.41964 159.411 7.97159 159.411 10.7335ZM150.457 10.1475H158.448C158.218 8.20196 156.859 6.23529 154.432 6.23529C152.089 6.23529 150.583 8.11811 150.457 10.1475Z" fill="#039785"/>
<path d="M166.59 8.03426C166.402 6.80021 165.376 6.15143 164.226 6.15143C162.761 6.15143 161.799 6.84172 161.799 8.05542C161.799 9.14295 162.552 9.51984 164.519 10.1686C166.527 10.8377 167.72 11.5492 167.72 13.1389C167.72 14.6034 166.527 16.1093 164.226 16.1093C162.175 16.1093 160.879 15.0218 160.712 13.1593H161.59C161.737 14.6026 162.594 15.3555 164.268 15.3555C165.963 15.3555 166.841 14.2468 166.841 13.2423C166.841 11.9456 165.942 11.4645 164.205 10.9199C162.176 10.2923 160.921 9.66473 160.921 8.03263C160.921 6.48437 162.28 5.39685 164.163 5.39685C166.046 5.39685 167.343 6.5267 167.448 8.03263H166.59V8.03426Z" fill="#039785"/>
<path d="M25.3768 16.1972C25.8156 15.5216 26.1737 14.7914 26.4497 14.0214H24.3341C24.0809 14.5773 23.7691 15.0999 23.4077 15.5843C24.0174 15.9066 24.6833 16.1126 25.3768 16.1972Z" fill="#039785"/>
<path d="M16.5699 1.96666C18.3038 1.96666 19.9163 2.48926 21.2643 3.38142C21.3694 3.45061 21.4662 3.52957 21.568 3.60283C22.4837 4.26544 23.2587 5.10388 23.8456 6.0693C23.879 6.12384 23.9156 6.17594 23.9473 6.2313C24.0882 6.47387 24.2176 6.72297 24.334 6.97938H26.4496C26.2624 6.45678 26.0451 5.94883 25.7813 5.46774L25.7846 5.46612C25.7439 5.39204 25.6918 5.3253 25.6503 5.25285C25.6267 5.21296 25.6022 5.17389 25.5786 5.13481L25.5746 5.13237C24.8379 3.89588 23.8505 2.82545 22.6799 1.9862L22.6791 1.97805C22.566 1.89665 22.4544 1.81363 22.3388 1.73711C22.2957 1.70862 22.2574 1.67362 22.2143 1.64594L22.207 1.65653C20.5765 0.613771 18.6448 0 16.5699 0C13.6745 0 11.0492 1.17788 9.14771 3.08024C9.84043 3.27479 10.499 3.56701 11.1119 3.94797C12.5918 2.7123 14.495 1.96666 16.5699 1.96666Z" fill="#039785"/>
<path d="M16.5701 19.0333C15.1594 19.0333 13.8309 18.6833 12.6579 18.0752C12.5675 18.0288 12.478 17.9808 12.3901 17.9311C12.3689 17.9198 12.3502 17.9059 12.329 17.8937L12.3242 17.8953C10.8231 17.0341 9.62569 15.7398 8.87843 14.1737L8.88006 14.172C8.85401 14.1183 8.82714 14.0662 8.80272 14.0117C8.76935 13.9376 8.73109 13.8668 8.69934 13.7919C8.27361 12.7776 8.03673 11.6657 8.03673 10.4992C8.03673 8.59275 8.67248 6.83691 9.73314 5.41483C9.12263 5.09248 8.45677 4.88654 7.76322 4.80188C6.69686 6.44456 6.07007 8.39901 6.07007 10.4992C6.07007 11.9221 6.35742 13.2782 6.87269 14.5163L6.86943 14.518C6.87432 14.5294 6.88002 14.5399 6.8849 14.5513C6.92397 14.6441 6.97119 14.7321 7.0127 14.8232C7.0648 14.938 7.11771 15.0528 7.17306 15.1659C8.17837 17.192 9.80478 18.8355 11.8309 19.8604C11.8984 19.8946 11.9627 19.9353 12.0311 19.9678L12.0368 19.9564C13.4117 20.6182 14.9453 21 16.5701 21C19.4655 21 22.0907 19.8221 23.9923 17.9197C23.2995 17.7252 22.641 17.433 22.028 17.052C20.5473 18.2877 18.6442 19.0333 16.5701 19.0333Z" fill="#039785"/>
<path d="M12.0434 5.5101C10.7108 4.17756 8.93871 3.4425 7.05345 3.4425C5.16819 3.4425 3.39608 4.17674 2.06353 5.5101C-0.687844 8.26148 -0.687844 12.7386 2.06353 15.4899C3.39608 16.8225 5.16819 17.5567 7.05345 17.5567C7.33591 17.5567 7.61512 17.5347 7.89108 17.5022C7.7299 17.3019 7.58012 17.0936 7.43279 16.8827C7.30661 16.8901 7.18044 16.9015 7.05264 16.9015C5.34239 16.9015 3.73552 16.2356 2.52589 15.026C0.0301193 12.5302 0.0301193 8.46905 2.52589 5.97328C3.73471 4.76365 5.34239 4.09778 7.05264 4.09778C8.76289 4.09778 10.3698 4.76365 11.5794 5.97328L15.6421 10.036L16.1053 9.57285L12.0434 5.5101Z" fill="#039785"/>
<path d="M31.0765 5.5101C29.744 4.17756 27.9719 3.4425 26.0858 3.4425C25.8041 3.4425 25.5258 3.46448 25.2506 3.49623C25.4126 3.69729 25.5665 3.90405 25.7146 4.11569C25.8383 4.10837 25.9613 4.09778 26.0866 4.09778C27.7969 4.09778 29.4037 4.76365 30.6134 5.97328C33.1091 8.46905 33.1091 12.5302 30.6134 15.026C29.4037 16.2356 27.7969 16.9015 26.0866 16.9015C24.3764 16.9015 22.7695 16.2356 21.5599 15.026L17.4971 10.9624L17.0339 11.4256L21.0967 15.4883C22.4292 16.8209 24.2013 17.5551 26.0874 17.5551C27.9735 17.5551 29.7448 16.8209 31.0782 15.4883C33.8287 12.7386 33.8287 8.26148 31.0765 5.5101Z" fill="#039785"/>
<path d="M17.7795 9.75269L21.559 5.97321C21.8301 5.70214 22.1239 5.46282 22.4316 5.24792C22.2843 5.08349 22.1256 4.93046 21.9652 4.77905C21.6608 4.99965 21.3669 5.23897 21.0958 5.51004L17.3432 9.26183L16.8621 9.74292L16.1059 10.4991L15.6427 10.9623L11.58 15.0259C11.3089 15.297 11.0151 15.5371 10.7065 15.752C10.8539 15.9164 11.0077 16.0735 11.1681 16.2249C11.475 16.0035 11.7705 15.7626 12.0432 15.4899L15.4995 12.0336L17.7795 9.75269Z" fill="#039785"/>
</svg>
