<svg width="443" height="378" viewBox="0 0 443 378" fill="none" xmlns="http://www.w3.org/2000/svg">
<g clip-path="url(#clip0)">
<path d="M55.9956 299.594C55.9956 299.594 59.2891 303.897 54.478 310.397C49.6669 316.896 45.7137 322.39 47.3051 326.431C47.3051 326.431 54.561 314.364 60.4699 314.193C66.3789 314.022 62.4949 306.854 55.9956 299.594Z" fill="#009966"/>
<path opacity="0.1" d="M55.9946 299.594C56.2813 300.01 56.508 300.465 56.6681 300.945C62.434 307.717 65.5015 314.036 59.9616 314.193C54.8045 314.341 48.6096 323.571 47.1289 325.9C47.1783 326.08 47.2368 326.257 47.3042 326.431C47.3042 326.431 54.5601 314.364 60.469 314.193C66.3779 314.022 62.494 306.854 55.9946 299.594Z" fill="black"/>
<path d="M62.1185 305.083C62.1185 306.596 61.9479 307.823 61.7403 307.823C61.5327 307.823 61.3574 306.596 61.3574 305.083C61.3574 303.57 61.5696 304.28 61.7818 304.28C61.994 304.28 62.1185 303.565 62.1185 305.083Z" fill="#FFD037"/>
<path d="M64.2154 306.886C62.8869 307.611 61.7245 308.049 61.6276 307.864C61.5308 307.68 62.5225 306.942 63.851 306.218C65.1794 305.493 64.6582 306.019 64.7735 306.218C64.8888 306.416 65.5439 306.162 64.2154 306.886Z" fill="#FFD037"/>
<path d="M38.6166 299.594C38.6166 299.594 35.3231 303.897 40.1342 310.397C44.9453 316.896 48.8984 322.39 47.307 326.431C47.307 326.431 40.0511 314.364 34.1422 314.193C28.2333 314.022 32.1172 306.854 38.6166 299.594Z" fill="#009966"/>
<path opacity="0.1" d="M38.6166 299.594C38.3299 300.01 38.1032 300.465 37.9431 300.945C32.1772 307.717 29.1097 314.036 34.6496 314.193C39.8113 314.341 46.0016 323.571 47.4823 325.9C47.435 326.081 47.3765 326.258 47.307 326.431C47.307 326.431 40.0511 314.364 34.1422 314.193C28.2333 314.022 32.1172 306.854 38.6166 299.594Z" fill="black"/>
<path d="M32.4941 305.083C32.4941 306.596 32.6648 307.823 32.877 307.823C33.0892 307.823 33.2552 306.596 33.2552 305.083C33.2552 303.57 33.0431 304.28 32.8309 304.28C32.6187 304.28 32.4941 303.565 32.4941 305.083Z" fill="#FFD037"/>
<path d="M30.3953 306.886C31.7238 307.611 32.8862 308.049 32.9877 307.864C33.0892 307.68 32.0882 306.942 30.7597 306.218C29.4312 305.493 29.9525 306.019 29.8372 306.218C29.7218 306.416 29.0668 306.162 30.3953 306.886Z" fill="#FFD037"/>
<path opacity="0.1" d="M424.903 262.415C421.946 269.542 418.067 276.373 412.638 281.613C406.023 287.997 397.808 291.48 389.011 293.145C386.418 293.628 383.8 293.967 381.17 294.16C374.218 294.695 367.101 294.34 360.274 293.597C343.552 291.771 327.06 288.243 311.056 283.066C308.426 282.217 305.812 281.324 303.214 280.386C299.29 278.987 295.405 277.477 291.558 275.856C275.874 269.302 259.66 260.943 242.976 263.536C234.89 264.795 227.293 268.61 219.188 269.745C213.5 270.492 207.72 270.081 202.195 268.536C199.52 267.82 196.899 266.916 194.353 265.828C188.614 263.333 183.153 260.241 178.061 256.603C165.837 248.06 154.868 237.469 141.998 230.07C127.809 221.91 112.103 218.031 96.1014 215.139C93.4967 214.668 90.8828 214.219 88.2597 213.792C80.8562 212.569 73.4343 211.439 66.1185 210.102C59.0702 208.801 51.8974 207.209 45.7624 203.298C41.3849 200.507 37.7039 196.642 34.3274 192.569C28.097 185.029 22.7513 176.8 18.3949 168.043C18.1643 167.581 17.9383 167.12 17.7169 166.659C10.9407 152.756 6.38334 137.598 3.58801 121.915C3.50498 121.454 3.42656 120.992 3.34815 120.531C0.718877 105.157 -0.240576 89.2613 0.0500273 73.4811L0.0777027 72.0973C0.2576 64.3063 0.741939 56.5477 1.46153 48.8997C1.97816 43.5213 2.67007 37.9398 5.45617 33.4193C8.24228 28.8988 12.7905 25.9697 17.334 23.5619C37.3072 12.9203 56.4548 9.95887 77.941 15.1159C81.3913 15.9416 84.8278 16.8319 88.2643 17.7544C90.8797 18.4556 93.4952 19.1798 96.106 19.9086C114.156 24.9411 132.159 30.2965 150.818 31.9017C152.62 32.0586 154.423 32.1785 156.229 32.2615C159.799 32.4276 163.369 32.4645 166.939 32.3722C176.136 32.1141 185.301 31.1705 194.358 29.5492C196.978 29.0972 199.592 28.5959 202.199 28.0455C213.454 25.6976 224.608 22.5655 235.582 19.1013C237.824 18.3941 240.062 17.6745 242.298 16.9426C247.335 15.2958 252.372 13.6168 257.419 11.9839C272.479 7.09896 287.641 2.63843 303.214 0.839456C304.549 0.685698 305.883 0.551929 307.218 0.438147C308.496 0.327441 309.778 0.239799 311.056 0.175221C335.25 -1.11635 359.72 4.71878 381.17 16.6612C383.83 18.1434 386.443 19.7179 389.011 21.3847C392.569 23.7003 396.018 26.1912 399.358 28.8573C406.203 34.3234 412.61 40.546 417.49 48.0233C422.246 55.3068 425.332 63.4853 427.108 72.0834C427.205 72.5447 427.297 73.006 427.38 73.4673C429.986 87.347 429.174 102.232 426.25 116.14C425.941 117.597 425.613 119.06 425.272 120.517C425.166 120.979 425.055 121.44 424.945 121.901C421.789 135.052 417.758 148.166 418.81 161.612C418.943 163.305 419.156 164.984 419.432 166.645C419.511 167.106 419.589 167.567 419.677 168.029C421.734 178.998 426.411 189.404 429.216 200.267C434.48 220.91 432.968 242.698 424.903 262.415Z" fill="#009966"/>
<path opacity="0.1" d="M389.01 73.4802H427.379C427.296 73.0189 427.204 72.5576 427.107 72.0964H389.01V21.3838C386.445 19.7201 383.831 18.1456 381.168 16.6603V72.0964H311.055V0.174316C309.777 0.238895 308.494 0.326537 307.217 0.437243C305.939 0.547949 304.546 0.686331 303.213 0.838552V72.0964H203.116L202.876 71.8334L257.413 11.9783C252.366 13.6113 247.329 15.2903 242.292 16.9371L202.194 60.9381V28.04C199.583 28.5904 196.969 29.0917 194.352 29.5437V62.4557L166.934 32.3667C163.363 32.4528 159.793 32.4159 156.223 32.256L192.276 71.8196L192.036 72.0825H96.091V19.9077C93.4801 19.1789 90.8647 18.4547 88.2493 17.7535V72.0964H0.0765035L0.0488281 73.4802H88.2585V120.53H3.34695C3.42536 120.992 3.50378 121.453 3.58681 121.914H88.2585V166.658H17.7157C17.9371 167.119 18.1631 167.58 18.3938 168.042H88.2585V213.828C90.8786 214.255 93.4925 214.704 96.1002 215.175V168.042H194.352V265.832C196.898 266.919 199.519 267.824 202.194 268.54V168.042H303.213V280.381C305.814 281.322 308.428 282.215 311.055 283.061V168.042H381.168V294.154C383.799 293.962 386.417 293.623 389.01 293.139V168.042H419.676C419.588 167.58 419.51 167.119 419.431 166.658H388.987V121.914H424.92C425.031 121.453 425.142 120.992 425.248 120.53H389.01V73.4802ZM381.168 73.4802V120.53H311.055V73.4802H381.168ZM303.213 120.53H202.194V73.4802H303.213V120.53ZM96.1002 73.4802H192.968L194.352 74.7395V120.53H96.1002V73.4802ZM96.1002 166.658V121.914H194.352V166.658H96.1002ZM202.194 166.658V121.914H303.213V166.658H202.194ZM381.168 166.658H311.055V121.914H381.168V166.658Z" fill="#009966"/>
<path opacity="0.1" d="M186.162 86.466C185.57 85.955 184.884 85.5649 184.142 85.3174C182.482 84.8038 180.739 84.6143 179.008 84.7593C177.738 84.8309 176.476 85.0068 175.235 85.2851L117.271 101.683C116.176 101.991 115.1 102.349 114.042 102.758C110.306 101.296 99.7424 97.0661 98.5846 95.5485L94.041 96.877L101.615 108.183C101.424 108.267 101.262 108.406 101.151 108.583C101.04 108.761 100.985 108.967 100.994 109.176C101.002 109.385 101.073 109.586 101.198 109.754C101.323 109.922 101.496 110.048 101.694 110.116C110.426 113.114 123.613 109.133 123.613 109.133L174.261 94.6629C174.261 94.6629 189.548 89.492 186.162 86.466Z" fill="#009966"/>
<path opacity="0.1" d="M119.413 105.261C119.646 105.185 119.731 104.809 119.603 104.422C119.476 104.035 119.184 103.783 118.952 103.859C118.72 103.936 118.635 104.312 118.762 104.699C118.889 105.086 119.181 105.338 119.413 105.261Z" fill="#009966"/>
<path opacity="0.1" d="M121.173 104.68C121.405 104.603 121.49 104.227 121.363 103.84C121.236 103.453 120.944 103.201 120.712 103.278C120.479 103.354 120.394 103.73 120.522 104.117C120.649 104.504 120.941 104.756 121.173 104.68Z" fill="#009966"/>
<path opacity="0.1" d="M124.542 103.57C124.775 103.494 124.86 103.118 124.732 102.731C124.605 102.344 124.313 102.092 124.081 102.168C123.848 102.245 123.763 102.621 123.891 103.008C124.018 103.395 124.31 103.647 124.542 103.57Z" fill="#009966"/>
<path opacity="0.1" d="M134.048 100.781C134.28 100.704 134.365 100.329 134.238 99.9413C134.111 99.5542 133.819 99.3023 133.587 99.3788C133.354 99.4552 133.269 99.8311 133.397 100.218C133.524 100.605 133.816 100.857 134.048 100.781Z" fill="#009966"/>
<path opacity="0.1" d="M135.433 100.755C135.665 100.679 135.751 100.304 135.625 99.9167C135.498 99.5295 135.208 99.277 134.975 99.3528C134.743 99.4287 134.657 99.804 134.783 100.191C134.91 100.578 135.201 100.831 135.433 100.755Z" fill="#009966"/>
<path opacity="0.1" d="M137.456 99.8228C137.689 99.7464 137.774 99.3705 137.646 98.9833C137.519 98.5962 137.227 98.3443 136.995 98.4207C136.763 98.4972 136.678 98.8731 136.805 99.2602C136.932 99.6474 137.224 99.8993 137.456 99.8228Z" fill="#009966"/>
<path opacity="0.1" d="M139.199 99.2465C139.431 99.1701 139.516 98.7942 139.388 98.407C139.261 98.0199 138.969 97.768 138.737 97.8445C138.505 97.9209 138.42 98.2968 138.547 98.684C138.675 99.0711 138.966 99.323 139.199 99.2465Z" fill="#009966"/>
<path opacity="0.1" d="M140.909 98.6844C141.142 98.6079 141.227 98.2321 141.099 97.8449C140.972 97.4577 140.68 97.2059 140.448 97.2823C140.216 97.3588 140.131 97.7346 140.258 98.1218C140.386 98.509 140.677 98.7609 140.909 98.6844Z" fill="#009966"/>
<path opacity="0.1" d="M142.458 98.1748C142.691 98.0983 142.776 97.7224 142.648 97.3353C142.521 96.9481 142.229 96.6962 141.997 96.7727C141.764 96.8491 141.679 97.225 141.807 97.6122C141.934 97.9993 142.226 98.2512 142.458 98.1748Z" fill="#009966"/>
<path opacity="0.1" d="M144.124 97.626C144.357 97.5496 144.442 97.1737 144.314 96.7866C144.187 96.3994 143.895 96.1475 143.663 96.224C143.431 96.3004 143.346 96.6763 143.473 97.0635C143.6 97.4506 143.892 97.7025 144.124 97.626Z" fill="#009966"/>
<path opacity="0.1" d="M145.863 97.0512C146.095 96.9747 146.18 96.5989 146.052 96.2117C145.925 95.8246 145.633 95.5727 145.401 95.6491C145.169 95.7256 145.084 96.1015 145.211 96.4886C145.339 96.8758 145.63 97.1277 145.863 97.0512Z" fill="#009966"/>
<path opacity="0.1" d="M147.409 96.5428C147.642 96.4663 147.727 96.0905 147.599 95.7033C147.472 95.3161 147.18 95.0643 146.948 95.1407C146.716 95.2172 146.631 95.593 146.758 95.9802C146.886 96.3674 147.177 96.6193 147.409 96.5428Z" fill="#009966"/>
<path opacity="0.1" d="M156.062 94.309C156.294 94.2326 156.379 93.8567 156.252 93.4695C156.124 93.0824 155.833 92.8305 155.6 92.907C155.368 92.9834 155.283 93.3593 155.41 93.7464C155.538 94.1336 155.83 94.3855 156.062 94.309Z" fill="#009966"/>
<path opacity="0.1" d="M159.441 93.1995C159.673 93.1231 159.758 92.7472 159.631 92.36C159.503 91.9729 159.212 91.721 158.979 91.7975C158.747 91.8739 158.662 92.2498 158.789 92.637C158.917 93.0241 159.208 93.276 159.441 93.1995Z" fill="#009966"/>
<path opacity="0.1" d="M161.13 92.6429C161.362 92.5664 161.448 92.1906 161.32 91.8034C161.193 91.4162 160.901 91.1644 160.669 91.2408C160.436 91.3173 160.351 91.6931 160.479 92.0803C160.606 92.4675 160.898 92.7194 161.13 92.6429Z" fill="#009966"/>
<path opacity="0.1" d="M162.775 92.1011C163.007 92.0247 163.092 91.6488 162.965 91.2616C162.837 90.8745 162.546 90.6226 162.313 90.6991C162.081 90.7755 161.996 91.1514 162.123 91.5386C162.251 91.9257 162.542 92.1776 162.775 92.1011Z" fill="#009966"/>
<path opacity="0.1" d="M164.388 91.5664C164.62 91.4899 164.705 91.114 164.578 90.7269C164.45 90.3397 164.159 90.0878 163.926 90.1643C163.694 90.2407 163.609 90.6166 163.737 91.0038C163.864 91.3909 164.156 91.6428 164.388 91.5664Z" fill="#009966"/>
<path opacity="0.1" d="M166.222 90.9686C166.454 90.8921 166.539 90.5163 166.412 90.1291C166.284 89.7419 165.993 89.49 165.76 89.5665C165.528 89.643 165.443 90.0188 165.571 90.406C165.698 90.7932 165.99 91.045 166.222 90.9686Z" fill="#009966"/>
<path opacity="0.1" d="M157.804 93.7341C158.036 93.6576 158.121 93.2818 157.994 92.8946C157.866 92.5074 157.575 92.2555 157.342 92.332C157.11 92.4085 157.025 92.7843 157.153 93.1715C157.28 93.5587 157.572 93.8105 157.804 93.7341Z" fill="#009966"/>
<path opacity="0.1" d="M122.99 104.081C123.222 104.005 123.307 103.629 123.179 103.242C123.052 102.855 122.76 102.603 122.528 102.679C122.296 102.756 122.211 103.132 122.338 103.519C122.466 103.906 122.757 104.158 122.99 104.081Z" fill="#009966"/>
<path opacity="0.1" d="M150.341 94.2427L148.756 94.6342L149.438 97.3972L151.023 97.0058L150.341 94.2427Z" fill="#009966"/>
<path opacity="0.1" d="M169.017 88.8929L167.432 89.2843L168.114 92.0474L169.699 91.6559L169.017 88.8929Z" fill="#009966"/>
<path opacity="0.1" d="M177.105 85.4329L175.002 85.9864L176.054 87.5732L179.172 86.7982L177.105 85.4329Z" fill="#009966"/>
<path opacity="0.1" d="M184.127 85.3174L179.579 86.5029L177.854 85.4327L179.002 84.7593C180.73 84.6155 182.47 84.805 184.127 85.3174Z" fill="#009966"/>
<path opacity="0.1" d="M94.0449 96.8402L101.619 108.183L113.99 102.698C113.99 102.698 99.9908 97.3568 98.5885 95.5117L94.0449 96.8402Z" fill="#009966"/>
<path opacity="0.1" d="M148.988 98.5422L129.001 103.939L127.82 106.301L148.988 98.5422Z" fill="#009966"/>
<path opacity="0.1" d="M347.454 41.072H346.845C347.058 40.9466 347.238 40.7708 347.367 40.5601C347.497 40.3494 347.572 40.1102 347.588 39.8634C347.588 38.9086 346.421 38.129 344.991 38.129H326.812C325.382 38.129 324.215 38.9086 324.215 39.8634C324.215 40.8137 325.382 41.5932 326.812 41.5932H327.416C327.204 41.7189 327.025 41.8948 326.897 42.1055C326.768 42.3162 326.693 42.5553 326.678 42.8017C326.678 43.6182 327.527 44.3009 328.662 44.4854H323.426C322.001 44.4854 320.834 45.265 320.834 46.2198C320.834 47.1746 322.001 47.9496 323.426 47.9496H341.605C343.031 47.9496 344.202 47.17 344.202 46.2198C344.202 45.4079 343.349 44.7207 342.214 44.5361H347.45C348.875 44.5361 350.042 43.7566 350.042 42.8017C350.042 41.8469 348.88 41.072 347.454 41.072Z" fill="#009966"/>
<path opacity="0.1" d="M150.417 57.5671H149.808C150.022 57.442 150.201 57.2663 150.33 57.0556C150.46 56.8448 150.536 56.6054 150.551 56.3585C150.551 55.4083 149.384 54.6241 147.954 54.6241H129.775C128.345 54.6241 127.178 55.4083 127.178 56.3585C127.178 57.3134 128.345 58.0929 129.775 58.0929H130.379C130.166 58.218 129.987 58.3937 129.857 58.6045C129.728 58.8152 129.652 59.0546 129.637 59.3015C129.637 60.1133 130.49 60.796 131.625 60.9805H126.389C124.964 60.9805 123.797 61.7601 123.797 62.7149C123.797 63.6698 124.964 64.4493 126.389 64.4493H144.573C145.998 64.4493 147.165 63.6698 147.165 62.7149C147.165 61.9031 146.316 61.2158 145.182 61.0313H150.417C151.842 61.0313 153.009 60.2517 153.009 59.3015C153.009 58.3513 151.842 57.5671 150.417 57.5671Z" fill="#009966"/>
<path opacity="0.1" d="M375.34 128.17H374.736C374.949 128.045 375.129 127.869 375.258 127.658C375.388 127.448 375.463 127.208 375.479 126.961C375.479 126.007 374.307 125.227 372.882 125.227H354.698C353.273 125.227 352.106 126.007 352.106 126.961C352.106 127.916 353.273 128.696 354.698 128.696H355.307C355.093 128.82 354.913 128.996 354.784 129.207C354.654 129.418 354.579 129.657 354.564 129.904C354.564 130.716 355.418 131.399 356.552 131.583H351.317C349.892 131.583 348.725 132.363 348.725 133.318C348.725 134.273 349.892 135.052 351.317 135.052H369.5C370.926 135.052 372.093 134.273 372.093 133.318C372.093 132.506 371.244 131.819 370.109 131.634H375.34C376.77 131.634 377.937 130.855 377.937 129.904C377.937 128.954 376.77 128.17 375.34 128.17Z" fill="#009966"/>
<path opacity="0.1" d="M233.395 364.108C310.833 364.108 373.609 354.474 373.609 342.589C373.609 330.705 310.833 321.071 233.395 321.071C155.958 321.071 93.1816 330.705 93.1816 342.589C93.1816 354.474 155.958 364.108 233.395 364.108Z" fill="#009966"/>
<path opacity="0.1" d="M408.021 369.389C427.025 369.389 442.432 367.025 442.432 364.108C442.432 361.191 427.025 358.826 408.021 358.826C389.016 358.826 373.609 361.191 373.609 364.108C373.609 367.025 389.016 369.389 408.021 369.389Z" fill="#009966"/>
<path opacity="0.1" d="M47.3037 359.357C66.3085 359.357 81.7149 356.992 81.7149 354.075C81.7149 351.158 66.3085 348.793 47.3037 348.793C28.299 348.793 12.8926 351.158 12.8926 354.075C12.8926 356.992 28.299 359.357 47.3037 359.357Z" fill="#009966"/>
<path opacity="0.1" d="M88.8234 377.595C99.3702 377.595 107.92 376.284 107.92 374.666C107.92 373.048 99.3702 371.737 88.8234 371.737C78.2765 371.737 69.7266 373.048 69.7266 374.666C69.7266 376.284 78.2765 377.595 88.8234 377.595Z" fill="#009966"/>
<path d="M65.0168 320.632L64.8508 321.975L64.6201 323.871L64.5233 324.664L64.2926 326.564L64.1911 327.353L63.9605 329.254L61.3266 350.837C61.0914 352.765 57.9455 354.269 54.1446 354.269H40.4631C36.6622 354.269 33.5209 352.765 33.2857 350.837L30.6472 329.254L30.4166 327.353L30.3197 326.564L30.0844 324.664L29.9876 323.871L29.7569 321.975L29.5909 320.632C29.4617 319.539 31.1638 318.621 33.3134 318.621H61.299C63.4577 318.621 65.1506 319.539 65.0168 320.632Z" fill="#65617D"/>
<path d="M64.8497 321.975L64.6191 323.871H29.9865L29.7559 321.975H64.8497Z" fill="#9D9CB5"/>
<path d="M64.5228 324.664L64.2922 326.565H30.3192L30.084 324.664H64.5228Z" fill="#9D9CB5"/>
<path d="M64.1906 327.353L63.96 329.254H30.6467L30.416 327.353H64.1906Z" fill="#9D9CB5"/>
<path d="M314.297 187.02L313.222 183.938L313.624 183.514L311.497 173.034C311.58 172.665 311.61 172.286 311.585 171.908C311.639 170.807 311.314 169.721 310.662 168.831L310.238 166.751C310.238 166.585 310.238 166.424 310.27 166.258C311.142 154.02 305.907 139.222 305.907 139.222V125.605L301.866 98.9621C301.944 85.6358 296.713 80.9723 296.713 80.9723C296.713 80.9723 296.284 80.8708 295.588 80.6587C294.204 77.7941 291.847 73.2782 287.991 66.0224C286.559 63.2615 284.689 60.7505 282.455 58.5866C279.479 55.5547 275.686 53.4537 271.537 52.5393C271.893 52.1388 272.28 51.767 272.695 51.4276C273.617 50.685 274.641 50.0899 275.504 49.2919C276.646 48.1825 277.52 46.8274 278.059 45.3296C278.945 43.159 279.187 40.7794 278.756 38.475C278.529 37.3218 278.071 36.2264 277.41 35.2546C276.749 34.2828 275.898 33.4546 274.909 32.8198C274.333 32.5243 273.789 32.1703 273.285 31.7635C272.626 31.1315 272.317 30.2413 271.98 29.4063C270.82 26.5461 269.072 23.961 266.85 21.8184C265.928 20.8958 264.793 20.0425 263.474 19.9364C262.155 19.8303 260.854 20.536 259.608 21.0711C257.459 21.9698 255.14 22.3939 252.812 22.3143C250.483 22.2347 248.199 21.6533 246.116 20.6098C244.091 19.572 242.14 18.059 239.852 18.0959C239.078 18.1306 238.32 18.3319 237.631 18.6861C236.941 19.0404 236.336 19.5392 235.857 20.1486C235.899 20.0609 235.936 19.9733 235.982 19.8856C235.148 20.8208 234.599 21.9747 234.4 23.2114V23.336C234.4 26.6387 235.262 30.3889 237.988 32.6537C237.79 32.9028 237.592 33.1519 237.407 33.4102C235.785 35.6316 234.673 38.1837 234.151 40.8843C233.629 43.585 233.709 46.3676 234.386 49.0336C234.266 49.0875 234.15 49.1508 234.04 49.2227L231.438 50.9848L225.516 56.105L222.868 57.8947C225.636 55.8559 229.602 52.5347 228.652 51.7736C227.342 50.7265 214.104 54.5412 211.068 58.0792C209.763 59.606 208.075 62.4613 206.58 65.2198L206.474 65.0168C206.35 65.1829 206.207 65.3812 206.059 65.5934L205.999 65.4827C205.381 66.313 204.408 67.7337 203.328 69.3436C202.936 69.9248 202.53 70.5337 202.129 71.1472C197.936 75.8568 189.877 85.3452 188.71 89.9026C188.71 89.9026 180.781 102.758 182.686 109.11C184.591 115.462 192.281 116.703 197.83 114.765C201.792 113.382 211.617 108.644 216.908 106.047L216.382 113.529C216.382 113.529 212.056 144.269 208.674 156.741C208.089 158.896 207.53 160.51 207.028 161.317C206.961 161.423 206.901 161.532 206.848 161.645C203.425 168.163 198.227 204.774 198.227 204.774C198.227 204.774 193.614 209.654 202.507 210.277C208.633 210.701 212.305 215.918 213.993 219.115V219.184C213.813 224.078 213.735 228.253 213.845 230.878C214.173 238.922 213.25 249.084 212.651 254.573C212.347 257.322 212.433 260.101 212.909 262.825C214.21 270.34 217.023 285.682 219.316 292.227C222.407 301.056 220.981 310.817 220.981 310.817C220.981 310.817 224.072 320.342 226.927 323.829C227.138 324.067 227.39 324.265 227.67 324.415C227.633 324.696 227.596 324.982 227.545 325.273C227.084 327.99 226.046 331.127 223.767 333.493C220.391 337.003 215.709 341.796 215.16 345.283C214.902 346.962 215.584 348.337 217.821 349.139C224.741 351.616 233.68 349.139 233.68 349.139C233.68 349.139 239.704 346.971 239.704 344.803C239.704 342.635 242.163 342.635 242.163 342.635L246.125 339.868C246.228 338.435 246.228 336.997 246.125 335.564C245.95 332.796 245.346 329.374 243.574 327.183C243.053 326.536 242.626 325.818 242.306 325.052C242.19 324.765 242.09 324.472 242.006 324.175C243.658 323.898 244.815 323.714 245.004 323.834C245.719 324.295 247.86 311.518 242.389 304.778C236.918 298.039 239.534 291.997 239.534 291.997C239.534 291.997 238.819 267.364 235.253 265.275C235.253 265.275 238.104 257.839 237.869 254.121C237.633 250.403 236.443 242.968 237.869 241.339C238.542 240.569 241.314 235.343 244.031 230.075C244.193 229.766 244.354 229.457 244.492 229.152C246.167 229.268 248.012 229.337 249.935 229.3C249.959 229.604 249.986 229.909 250.014 230.223C250.443 234.863 251.481 239.951 253.787 243.673V267.143C253.787 267.143 255.452 273.882 256.878 276.673C258.303 279.464 252.44 298.745 252.44 298.745C252.44 298.745 249.184 322.33 252.44 325.291C253.137 325.84 253.952 326.219 254.82 326.398C254.871 326.717 254.917 327.04 254.963 327.367C255.425 330.513 255.734 333.95 255.369 335.928C254.944 338.473 254.956 341.072 255.406 343.613C255.475 344.001 255.526 344.213 255.526 344.213C255.526 344.213 254.022 351.727 264.41 350.648C274.798 349.568 275.905 346.307 275.905 346.307C275.905 346.307 275.905 346.201 275.882 346.017C275.826 345.275 275.727 344.537 275.587 343.807C274.954 340.536 273.645 337.433 271.745 334.697C270.916 333.564 270.435 332.214 270.361 330.813C270.361 329.89 270.301 328.885 270.25 327.879C270.25 327.57 270.218 327.261 270.199 326.957C270.947 326.906 271.394 326.864 271.394 326.864C271.394 326.864 274.72 321.057 274.485 309.899C274.249 298.74 277.1 288.523 277.1 288.523C277.1 288.523 277.815 271.793 277.1 269.468C276.385 267.143 275.592 253.992 277.418 252.202C278.682 250.962 280.324 235.721 281.215 226.491C281.247 226.177 281.275 225.873 281.302 225.568C283.632 225.476 285.108 225.462 285.108 225.462C285.108 225.462 285.366 218.631 285.592 209.318L286.602 208.935C286.169 209.631 286.635 211.522 290.002 210.572C294.342 209.354 300.113 208.307 300.113 208.307C300.113 208.307 303.204 206.098 303.342 204.53C303.465 203.728 303.644 202.936 303.877 202.159C310.644 199.46 316.207 197.209 316.207 197.209C316.207 197.209 318.421 193.602 314.297 187.02ZM290.592 148.056L291.413 154.615L289.107 155.325L284.25 155.657C282.898 143.383 285.172 122.727 285.172 122.727L285.583 122.459C287.635 130.749 290.592 148.056 290.592 148.056ZM266.343 62.5398C266.242 62.3045 266.145 62.0785 266.043 61.8017L266.504 62.5121C266.45 62.5177 266.396 62.5269 266.343 62.5398ZM284.407 156.788L284.324 156.137L285.915 155.8L288.429 155.542L284.407 156.788ZM234.4 66.2807C233.722 66.4421 233.016 66.6174 232.347 66.8158L232.467 66.7466L234.441 65.5703C234.413 65.7984 234.4 66.0279 234.4 66.2576V66.2807ZM212.023 83.3756C210.436 84.1505 209.643 84.0721 209.643 84.0721L213.287 77.0146C213.709 76.3754 214.09 75.7098 214.426 75.0219C215.47 74.6126 216.607 74.4993 217.711 74.6944C217.711 74.6944 218.592 74.496 219.953 74.1639C219.639 74.5605 219.347 74.9731 219.076 75.4001C219.076 75.4001 213.605 82.6006 212.023 83.3756ZM287.174 208.676L288.318 208.238C287.829 208.593 287.419 208.782 287.174 208.676Z" fill="url(#paint0_linear)"/>
<path d="M248.822 56.6123C247.355 57.4749 247.309 61.1605 247.535 64.1173C247.697 66.2806 247.997 68.0519 247.997 68.0519L238.453 91.2541C238.453 91.2541 234.915 74.722 234.86 67.3416C234.855 66.7592 234.944 66.18 235.122 65.6256C236.806 60.3071 246.161 57.3365 248.822 56.6123Z" fill="#67647E"/>
<path d="M249.528 56.4139C249.528 56.4139 249.27 56.4739 248.822 56.5984C249.037 56.4749 249.281 56.4112 249.528 56.4139Z" fill="#67647E"/>
<path d="M246.218 338.881L242.376 341.648C242.376 341.648 239.991 341.648 239.991 343.802C239.991 345.957 234.151 348.106 234.151 348.106C234.151 348.106 225.461 350.565 218.772 348.106C216.604 347.308 215.94 345.943 216.194 344.277C216.724 340.804 221.268 336.058 224.538 332.575C226.748 330.227 227.767 327.113 228.201 324.42C228.521 322.492 228.607 320.533 228.459 318.584L242.528 317.583C241.722 319.707 241.722 322.052 242.528 324.175C242.835 324.935 243.25 325.646 243.76 326.288C245.475 328.465 246.066 331.883 246.232 334.591C246.328 336.019 246.324 337.453 246.218 338.881Z" fill="#67647E"/>
<path d="M275.13 345.26C275.13 345.26 274.055 348.489 263.981 349.568C253.907 350.648 255.351 343.184 255.351 343.184C255.351 343.184 255.3 342.972 255.235 342.589C254.798 340.066 254.785 337.487 255.198 334.96C255.549 332.995 255.245 329.586 254.806 326.463C254.29 322.745 253.584 319.428 253.584 319.428L269.194 320.582C269.194 320.582 269.466 323.76 269.623 326.97C269.673 327.971 269.715 328.972 269.729 329.886C269.801 331.272 270.269 332.608 271.076 333.737C272.924 336.464 274.192 339.541 274.803 342.778C274.937 343.504 275.033 344.237 275.089 344.974C275.121 345.172 275.13 345.26 275.13 345.26Z" fill="#67647E"/>
<path d="M246.218 338.881L242.376 341.648C242.376 341.648 239.991 341.648 239.991 343.802C239.991 345.957 234.151 348.106 234.151 348.106C234.151 348.106 225.461 350.565 218.772 348.106C216.604 347.308 215.94 345.943 216.194 344.277C216.401 344.277 216.6 344.305 216.766 344.31C219.506 344.397 222.172 345.135 224.898 345.38C226.451 345.494 228.01 345.519 229.566 345.454C230.338 345.449 231.109 345.388 231.872 345.274C233.718 344.946 235.429 343.991 237.076 343.055C237.478 342.866 237.833 342.589 238.114 342.243C238.335 341.86 238.491 341.442 238.575 341.007C239.156 338.922 240.78 337.252 242.643 336.154C243.777 335.509 244.979 334.991 246.227 334.609C246.324 336.031 246.321 337.459 246.218 338.881Z" fill="#67647E"/>
<path d="M275.127 345.26C275.127 345.26 274.052 348.489 263.978 349.568C253.904 350.648 255.348 343.184 255.348 343.184C255.348 343.184 255.297 342.972 255.232 342.589C255.694 342.829 256.086 343.05 256.266 343.152C257.188 343.692 258.014 344.434 258.973 344.937C261.28 346.15 264.07 345.79 266.649 345.398C267.871 345.214 269.094 345.029 270.312 344.803C271.24 344.676 272.143 344.408 272.992 344.01C273.622 343.643 274.226 343.233 274.8 342.783C274.934 343.509 275.03 344.242 275.086 344.979C275.118 345.172 275.127 345.26 275.127 345.26Z" fill="#67647E"/>
<path opacity="0.1" d="M246.218 338.881L242.376 341.648C242.376 341.648 239.991 341.648 239.991 343.802C239.991 345.957 234.151 348.106 234.151 348.106C234.151 348.106 225.461 350.565 218.772 348.106C216.604 347.308 215.94 345.943 216.194 344.277C216.401 344.277 216.6 344.305 216.766 344.31C219.506 344.397 222.172 345.135 224.898 345.38C226.451 345.494 228.01 345.519 229.566 345.454C230.338 345.449 231.109 345.388 231.872 345.274C233.718 344.946 235.429 343.991 237.076 343.055C237.478 342.866 237.833 342.589 238.114 342.243C238.335 341.86 238.491 341.442 238.575 341.007C239.156 338.922 240.78 337.252 242.643 336.154C243.777 335.509 244.979 334.991 246.227 334.609C246.324 336.031 246.321 337.459 246.218 338.881Z" fill="black"/>
<path opacity="0.1" d="M275.127 345.26C275.127 345.26 274.052 348.489 263.978 349.568C253.904 350.648 255.348 343.184 255.348 343.184C255.348 343.184 255.297 342.972 255.232 342.589C255.694 342.829 256.086 343.05 256.266 343.152C257.188 343.692 258.014 344.434 258.973 344.937C261.28 346.15 264.07 345.79 266.649 345.398C267.871 345.214 269.094 345.029 270.312 344.803C271.24 344.676 272.143 344.408 272.992 344.01C273.622 343.643 274.226 343.233 274.8 342.783C274.934 343.509 275.03 344.242 275.086 344.979C275.118 345.172 275.127 345.26 275.127 345.26Z" fill="black"/>
<path opacity="0.1" d="M242.532 317.583C241.727 319.707 241.727 322.052 242.532 324.175C238.496 324.862 230.973 326.251 228.205 324.42C228.525 322.492 228.612 320.533 228.463 318.584L242.532 317.583Z" fill="black"/>
<path opacity="0.1" d="M269.65 326.97C266.799 327.173 259.128 327.575 254.834 326.463C254.317 322.745 253.611 319.428 253.611 319.428L269.221 320.582C269.221 320.582 269.484 323.76 269.65 326.97Z" fill="black"/>
<path d="M280.895 219.41C280.895 219.41 280.655 222.293 280.272 226.329C279.41 235.49 277.818 250.615 276.582 251.847C274.811 253.623 275.581 266.677 276.273 268.983C276.965 271.29 276.273 287.896 276.273 287.896C274.532 294.833 273.679 301.963 273.736 309.114C273.967 320.185 270.738 325.951 270.738 325.951C270.738 325.951 255.516 327.335 252.365 324.392C249.215 321.449 252.365 298.044 252.365 298.044C252.365 298.044 258.053 278.901 256.669 276.133C255.285 273.366 253.67 266.677 253.67 266.677V243.383C251.433 239.692 250.442 234.618 250.013 230.033C249.671 226.111 249.66 222.167 249.98 218.243C249.98 218.243 247.116 224.101 244.196 229.895C241.557 235.13 238.873 240.311 238.199 241.076C236.815 242.691 237.969 250.071 238.199 253.761C238.43 257.452 235.662 264.832 235.662 264.832C239.122 266.908 239.814 291.355 239.814 291.355C239.814 291.355 237.277 297.352 242.581 304.04C247.886 310.729 245.81 323.414 245.118 322.953C244.427 322.491 230.358 326.412 227.59 322.953C224.822 319.493 221.824 310.037 221.824 310.037C221.824 310.037 223.208 300.35 220.21 291.586C217.986 285.091 215.26 269.864 213.996 262.406C213.535 259.7 213.451 256.943 213.747 254.213C214.328 248.766 215.223 238.682 214.905 230.688C214.799 228.082 214.873 223.94 215.048 219.083C215.643 202.431 217.442 177.411 217.442 177.411L229.979 168.965L238.236 163.365L240.257 163.674L277.906 169.473L279.368 188.043L280.895 219.41Z" fill="#444053"/>
<path opacity="0.1" d="M229.981 168.965L229.321 172.591C229.321 172.591 223.786 199.114 222.632 212.722C221.479 226.329 216.636 222.408 216.636 222.408C216.213 221.266 215.695 220.161 215.086 219.106C215.681 202.454 217.48 177.434 217.48 177.434L229.981 168.965Z" fill="black"/>
<path d="M269.515 68.3425C269.515 68.3425 243.683 89.0215 248.453 84.87C251.064 82.5913 249.288 72.8769 247.148 64.5739C245.385 57.724 243.379 51.8289 243.379 51.8289C243.379 51.8289 265.926 30.7348 264.289 47.9819C263.712 54.0615 264.192 58.3836 265.054 61.4373C266.636 67.0233 269.515 68.3425 269.515 68.3425Z" fill="#EFB7B9"/>
<path opacity="0.1" d="M267.363 62.8442L250.988 75.6446L246.218 70.34C246.218 70.34 242.145 68.5733 241.836 70.5706C241.527 72.5679 240.378 84.8701 242.759 86.0233C245.139 87.1765 248.22 87.9468 250.909 87.564C253.599 87.1811 256.597 84.1782 258.599 83.025C260.601 81.8718 267.977 75.8753 267.977 75.8753L271.667 70.7274L267.363 62.8442Z" fill="black"/>
<path d="M267.363 63.3054L250.988 76.1058L246.218 70.8011C246.218 70.8011 242.145 69.0345 241.836 71.0318C241.527 73.0291 240.378 85.3313 242.759 86.4845C245.139 87.6377 248.22 88.408 250.909 88.0252C253.599 87.6423 256.597 84.6394 258.599 83.4862C260.601 82.333 267.977 76.3364 267.977 76.3364L271.667 71.1886L267.363 63.3054Z" fill="#A36468"/>
<path opacity="0.1" d="M280.896 219.41C280.896 219.41 280.656 222.293 280.273 226.329C275.199 226.523 265.355 227.123 258.446 228.931C255.688 229.613 252.863 229.983 250.023 230.033C249.681 226.111 249.67 222.167 249.99 218.243C249.99 218.243 247.126 224.101 244.206 229.895C241.708 229.727 239.224 229.405 236.766 228.931L239.842 188.952C239.842 188.952 239.741 175.534 240.248 163.66L277.898 169.459L279.36 188.03L280.896 219.41Z" fill="black"/>
<path opacity="0.1" d="M252.607 74.5698C252.607 74.5698 263.793 62.3414 266.446 64.2834C269.098 66.2253 270.814 70.958 270.814 70.958L261.718 80.9493L252.607 74.5698Z" fill="black"/>
<path d="M253.062 74.1085C253.062 74.1085 264.248 61.8801 266.901 63.8221C269.553 65.764 271.269 70.4967 271.269 70.4967L262.173 80.4879L253.062 74.1085Z" fill="#A36468"/>
<path opacity="0.1" d="M243.791 81.9455L250.221 73.8501C250.221 73.8501 249.202 66.1975 246.845 67.1754C244.488 68.1533 243.791 72.0696 243.791 72.0696V81.9455Z" fill="black"/>
<path d="M243.301 81.4104L249.731 73.3151C249.731 73.3151 248.716 65.6625 246.354 66.6404C243.993 67.6183 243.301 71.5345 243.301 71.5345V81.4104Z" fill="#A36468"/>
<path opacity="0.1" d="M272.904 66.8804C272.904 66.8804 259.661 81.1799 251.754 82.1394C251.035 82.227 250.325 82.3469 249.614 82.4899C247.552 82.8958 243.05 82.4899 243.765 70.6674L242.764 68.5733L236.615 72.3419L234.54 89.2522L230.849 132.612L225.393 180.894C225.393 180.894 242.151 179.279 246.842 183.509C251.533 187.739 252.838 160.445 252.838 160.445L265.676 105.092L279.362 69.4958L272.904 66.8804Z" fill="black"/>
<path opacity="0.1" d="M279.362 71.3409L265.676 106.937L252.838 162.291C252.838 162.291 251.528 189.58 246.842 185.354C245.31 183.97 242.487 183.214 239.383 182.822C235.566 182.41 231.72 182.323 227.888 182.564C226.357 182.647 225.393 182.739 225.393 182.739L230.849 134.457L234.54 91.0973L236.615 74.1869L242.764 70.4183L243.765 72.5125C243.765 72.8215 243.733 73.126 243.719 73.435C243.285 84.358 247.608 84.7455 249.614 84.3488C250.325 84.2058 251.035 84.0859 251.754 83.9982C257.354 83.3109 265.63 75.9444 269.979 71.7099C271.774 69.957 272.904 68.7393 272.904 68.7393L279.362 71.3409Z" fill="black"/>
<path d="M279.362 69.9571L265.676 105.554L252.838 160.907C252.838 160.907 251.528 188.196 246.842 183.97C245.31 182.587 242.487 181.83 239.383 181.438C235.566 181.026 231.72 180.939 227.888 181.18C226.357 181.263 225.393 181.355 225.393 181.355L230.849 133.073L234.54 89.7135L236.615 72.8031L242.764 69.0345L243.765 71.1287C243.765 71.4378 243.733 71.7422 243.719 72.0512C243.285 82.9742 247.608 83.3617 249.614 82.965C250.325 82.822 251.035 82.7021 251.754 82.6145C257.354 81.9272 265.63 74.5606 269.979 70.3261C271.774 68.5732 272.904 67.3555 272.904 67.3555L279.362 69.9571Z" fill="#E1E7EF"/>
<path opacity="0.1" d="M243.765 71.1287C243.765 71.4377 243.733 71.7422 243.719 72.0512L243.613 72.125C241.989 73.1952 239.383 91.268 239.383 91.268L236.002 137.317L229.775 171.682C229.775 171.682 228.958 175.598 227.888 181.194C226.357 181.277 225.393 181.369 225.393 181.369L230.849 133.087L234.54 89.7273L236.615 72.817L242.764 69.0483L243.765 71.1287Z" fill="black"/>
<path d="M248.004 68.0519C248.004 68.0519 244.314 71.041 242.69 72.1111C241.067 73.1813 238.46 91.2541 238.46 91.2541L235.079 137.303L228.852 171.668C228.852 171.668 223.317 198.192 222.164 211.799C221.01 225.407 216.167 221.486 216.167 221.486C216.167 221.486 212.551 210.877 203.943 210.263C195.336 209.65 199.792 204.802 199.792 204.802C199.792 204.802 204.833 168.467 208.15 161.995C208.202 161.884 208.26 161.776 208.325 161.672C208.814 160.87 209.354 159.269 209.921 157.129C213.201 144.748 217.394 114.23 217.394 114.23L220.009 76.4056C226.698 65.4872 247.483 65.8655 247.483 65.8655L248.004 68.0519Z" fill="#67647E"/>
<path opacity="0.1" d="M279.362 69.957L265.676 105.554L252.838 160.907C252.838 160.907 251.528 188.196 246.842 183.97C245.31 182.587 242.487 181.83 239.383 181.438C239.438 172.056 239.724 155.219 241.076 148.143C242.245 141.677 242.734 135.107 242.533 128.539L259.296 92.0198C259.296 92.0198 271.903 76.4794 271.981 74.2561C272.009 73.435 271.114 71.9128 269.979 70.3122C271.774 68.5593 272.904 67.3416 272.904 67.3416L279.362 69.957Z" fill="black"/>
<path d="M237.225 228.008L240.301 188.03C240.301 188.03 240.071 158.199 241.994 148.129C243.164 141.663 243.652 135.093 243.452 128.525L260.215 92.0059C260.215 92.0059 272.821 76.4656 272.9 74.2422C272.978 72.0189 266.294 64.6246 266.294 64.6246C266.294 64.6246 280.894 66.3314 282.817 72.863C284.741 79.3947 295.271 81.9363 295.271 81.9363C295.271 81.9363 300.346 86.5491 300.267 99.7738C300.189 112.999 284.122 123.373 284.122 123.373C284.122 123.373 281.433 148.282 283.74 159.509C286.046 170.736 284.044 225.315 284.044 225.315C284.044 225.315 268.591 225.471 258.905 228.008C249.218 230.545 237.225 228.008 237.225 228.008Z" fill="#67647E"/>
<path d="M259.982 164.597L271.819 209.414C271.819 209.414 273.433 213.414 281.736 210.337C290.039 207.26 314.182 197.269 314.182 197.269C314.182 197.269 316.332 193.731 312.337 187.199L300.266 151.833L259.982 164.597Z" fill="#B07473"/>
<path d="M275.307 184.413L294.45 163.365L306.673 158.407L311.687 183.717L288.453 208.972L275.307 184.413Z" fill="#E1E7EF"/>
<path d="M295.758 191.448C295.758 191.448 290.066 194.796 288.562 194.907C287.058 195.018 281.768 205.018 284.005 204.94C286.242 204.862 291.445 202.172 290.924 203.556C290.403 204.94 287.008 209.091 286.025 208.695C285.043 208.298 284.581 211.744 288.793 210.54C293.004 209.336 298.595 208.293 298.595 208.293C298.595 208.293 301.593 206.102 301.709 204.543C301.824 202.984 304.421 194.796 304.421 194.796L295.758 191.448Z" fill="#EFB7B9"/>
<path d="M204.373 73.3613C204.373 73.3613 209.299 62.7242 212.242 59.2093C215.185 55.6944 228.023 51.912 229.31 52.9498C230.597 53.9877 222.852 59.8136 221.468 60.5609C220.084 61.3081 230.407 68.2503 230.62 68.4025C230.832 68.5548 238.692 67.706 234.656 70.3584C230.62 73.0107 218.686 75.7091 218.686 75.7091C217.883 75.5703 217.059 75.5968 216.266 75.7872C215.473 75.9775 214.727 76.3277 214.074 76.8162C211.763 78.4906 204.373 73.3613 204.373 73.3613Z" fill="#EFB7B9"/>
<path opacity="0.1" d="M306.857 191.978C306.205 194.117 305.329 196.181 304.246 198.136C303.093 197.094 292.082 193.463 292.082 193.463L293.304 191.577L295.297 188.505C295.297 188.505 305.113 186.374 306.783 188.505C307.346 189.22 307.244 190.539 306.857 191.978Z" fill="black"/>
<path d="M307.316 191.517C306.663 193.655 305.788 195.719 304.705 197.675C303.552 196.632 292.541 193.002 292.541 193.002L293.763 191.116L295.756 188.043C295.756 188.043 305.572 185.912 307.242 188.043C307.805 188.758 307.703 190.078 307.316 191.517Z" fill="#A36468"/>
<path opacity="0.1" d="M215.626 75.7599C215.272 76.5515 214.856 77.3135 214.38 78.0386C212.604 80.8385 209.915 84.1413 209.915 84.1413C209.915 84.1413 199.426 79.3163 199.426 79.1041C199.426 78.8919 202.609 73.8779 205.196 69.9247C206.243 68.3287 207.189 66.9172 207.789 66.0916C207.789 66.0916 211.705 74.2838 215.57 74.3392C216.604 74.353 216.046 74.7589 215.626 75.7599Z" fill="black"/>
<path d="M215.167 76.2211C214.813 77.0127 214.397 77.7747 213.921 78.4998C212.145 81.2997 209.456 84.6024 209.456 84.6024C209.456 84.6024 198.967 79.7775 198.967 79.5653C198.967 79.3531 202.15 74.3391 204.737 70.3859C205.784 68.7899 206.73 67.3784 207.33 66.5527C207.33 66.5527 211.246 74.745 215.111 74.8003C216.145 74.8142 215.587 75.2201 215.167 76.2211Z" fill="#A36468"/>
<path d="M274.324 160.828L272.977 156.792L291.88 155.464L284.818 156.216L275.823 158.148L276.515 160.828H274.324Z" fill="#B07473"/>
<path opacity="0.1" d="M307.318 191.517C305.233 190.534 299.67 188.491 293.766 191.116L295.758 188.043C295.758 188.043 305.574 185.912 307.244 188.043C307.807 188.758 307.705 190.078 307.318 191.517Z" fill="black"/>
<path d="M308.421 166.594C308.375 167.263 308.333 167.932 308.292 168.596C308.176 170.63 308.098 172.646 308.047 174.593C307.817 183.606 308.19 191.042 308.19 191.042C308.19 191.042 301.04 186.738 293.429 190.35L292.673 175.764V175.511L291.893 169.131L289.366 148.526C289.366 148.526 284.601 119.927 283.138 118.852C281.676 117.777 293.978 94.6353 293.978 94.6353L300.27 99.7739L304.191 126.219V139.748C304.191 139.748 309.265 154.449 308.421 166.594Z" fill="#67647E"/>
<path opacity="0.1" d="M215.397 75.5707L213.921 78.4998C212.145 81.2998 209.456 84.6025 209.456 84.6025C209.456 84.6025 198.967 79.7776 198.967 79.5654C198.967 79.3532 202.15 74.3391 204.737 70.386C205.535 69.4865 206.02 68.9561 206.02 68.9561C202.943 76.5671 215.397 75.5707 215.397 75.5707Z" fill="black"/>
<path d="M224.309 74.2561L220.005 76.4149C220.005 76.4149 214.7 83.5647 213.164 84.335C211.628 85.1053 210.858 85.0269 210.858 85.0269L215.392 76.032C215.392 76.032 202.938 77.0284 206.015 69.4174C206.015 69.4174 192.098 84.6394 190.562 90.7929C190.562 90.7929 182.872 103.552 184.718 109.857C186.563 116.163 194.021 117.39 199.4 115.471C204.778 113.552 221.311 105.092 221.311 105.092L224.309 74.2561Z" fill="#67647E"/>
<path opacity="0.1" d="M208.856 89.2522C208.856 89.2522 197.251 102.246 198.173 104.013C199.096 105.78 208.243 91.8676 208.856 89.2522Z" fill="black"/>
<path opacity="0.2" d="M261.25 54.2736C261.25 54.2736 277.584 49.3518 286.809 67.1109C296.035 84.87 296.344 86.1016 295.882 86.9458C295.421 87.7899 277.51 83.1034 276.509 85.1791C275.508 87.2548 286.657 95.7884 286.657 95.7884L243.449 128.539L261.605 89.9579C262.821 87.2562 264.444 84.7564 266.416 82.5452C269.401 79.2056 273.483 74.09 272.034 72.5125C270.761 71.1286 268.727 67.5169 265.978 63.3608C263.976 60.3163 260.779 56.8752 261.25 54.2736Z" fill="black"/>
<path d="M260.789 53.8123C260.789 53.8123 277.122 48.8905 286.348 66.6496C295.573 84.4087 295.882 85.6403 295.421 86.4845C294.96 87.3286 277.049 82.642 276.048 84.7178C275.047 86.7935 286.196 95.3271 286.196 95.3271L243.449 128.539L261.144 89.4966C262.36 86.7949 263.983 84.2951 265.955 82.0839C268.939 78.7443 273.022 73.6287 271.573 72.0512C270.3 70.6673 268.266 67.0556 265.517 62.8995C263.515 59.855 260.318 56.4139 260.789 53.8123Z" fill="#67647E"/>
<path opacity="0.1" d="M260.789 53.8123C260.789 53.8123 277.122 48.8905 286.348 66.6496C295.573 84.4087 295.882 85.6403 295.421 86.4845C294.96 87.3286 277.049 82.642 276.048 84.7178C275.047 86.7935 286.196 95.3271 286.196 95.3271L243.449 128.539L261.992 87.6192C262.711 86.0303 263.682 84.5677 264.866 83.2878C267.791 80.1419 273.225 73.8363 271.587 72.0512C270.314 70.6673 268.28 67.0556 265.53 62.8995C263.515 59.855 260.318 56.4139 260.789 53.8123Z" fill="black"/>
<path d="M264.137 135.228C266.004 135.228 267.518 133.714 267.518 131.846C267.518 129.979 266.004 128.465 264.137 128.465C262.27 128.465 260.756 129.979 260.756 131.846C260.756 133.714 262.27 135.228 264.137 135.228Z" fill="#444053"/>
<path d="M264.137 156.216C266.004 156.216 267.518 154.702 267.518 152.834C267.518 150.967 266.004 149.453 264.137 149.453C262.27 149.453 260.756 150.967 260.756 152.834C260.756 154.702 262.27 156.216 264.137 156.216Z" fill="#444053"/>
<path d="M308.046 174.593C306.1 175.054 296.87 174.846 292.672 175.764V175.511L291.893 169.131C296.625 168.541 306.912 167.42 308.305 168.596C310.108 170.132 310.367 174.062 308.046 174.593Z" fill="#67647E"/>
<path opacity="0.1" d="M308.046 175.054C306.1 175.515 296.87 175.308 292.672 176.226V175.972L291.893 169.593C296.625 169.002 306.912 167.881 308.305 169.057C310.108 170.593 310.367 174.524 308.046 175.054Z" fill="black"/>
<path opacity="0.1" d="M308.046 174.593C306.1 175.054 296.87 174.846 292.672 175.764V175.511L291.893 169.131C296.625 168.541 306.912 167.42 308.305 168.596C310.108 170.132 310.367 174.062 308.046 174.593Z" fill="black"/>
<path d="M306.037 173.555C307.163 173.555 308.076 172.642 308.076 171.516C308.076 170.39 307.163 169.477 306.037 169.477C304.911 169.477 303.998 170.39 303.998 171.516C303.998 172.642 304.911 173.555 306.037 173.555Z" fill="#444053"/>
<path opacity="0.1" d="M267.516 179.662L276.128 209.032C276.128 209.032 278.434 210.106 278.434 208.187C278.434 206.268 267.516 179.662 267.516 179.662Z" fill="white"/>
<path opacity="0.1" d="M264.21 59.9981C263.666 60.4345 263.098 60.8395 262.508 61.2113C259.579 63.0564 256.973 65.5611 253.241 65.5611C251.169 65.5641 249.11 65.2259 247.148 64.5601C245.385 57.7102 243.379 51.8151 243.379 51.8151C243.379 51.8151 265.926 30.721 264.289 47.9681C263.712 54.0477 263.348 56.9445 264.21 59.9981Z" fill="black"/>
<path d="M272.183 45.6986C272.183 49.4446 271.072 53.1064 268.991 56.2211C266.91 59.3357 263.952 61.7633 260.491 63.1968C257.03 64.6304 253.222 65.0054 249.548 64.2746C245.874 63.5438 242.499 61.74 239.85 59.0912C237.201 56.4424 235.397 53.0676 234.667 49.3936C233.936 45.7196 234.311 41.9114 235.744 38.4506C237.178 34.9898 239.606 32.0317 242.72 29.9506C245.835 27.8694 249.497 26.7586 253.243 26.7586C255.733 26.747 258.201 27.229 260.504 28.1767C262.808 29.1244 264.9 30.5191 266.661 32.2801C268.422 34.0412 269.817 36.1337 270.765 38.4369C271.712 40.74 272.194 43.2081 272.183 45.6986Z" fill="#EFB7B9"/>
<path d="M242.509 61.548C242.331 61.9789 242.021 62.3422 241.623 62.5859L238.615 64.431L232.993 67.849L224.095 73.2551C223.885 73.3782 223.673 73.4935 223.458 73.6011C222.415 74.131 221.264 74.4149 220.094 74.4309C218.925 74.4468 217.767 74.1946 216.71 73.6934C215.911 73.3342 215.209 72.7906 214.661 72.1074C214.114 71.4242 213.736 70.6209 213.559 69.7633C213.322 68.5695 213.422 67.3333 213.847 66.1929C214.272 65.0525 215.006 64.0528 215.967 63.3054C216.014 63.2632 216.071 63.2344 216.133 63.2224C218.026 62.6874 219.808 61.8155 221.391 60.6485L226.991 56.7738L231.992 52.2025L234.519 50.4543C234.89 50.1975 235.326 50.0523 235.777 50.036C236.227 50.0196 236.673 50.1328 237.061 50.3621C239.667 51.8427 244.815 55.7221 242.509 61.548Z" fill="#E1E7EF"/>
<path d="M238.618 64.4078L232.995 67.8259C231.823 63.1024 228.844 59.7674 226.256 57.2488L231.994 52.1748C236.358 54.3382 238.092 61.5664 238.618 64.4078Z" fill="#A36468"/>
<path opacity="0.1" d="M223.458 73.578C222.415 74.1079 221.264 74.3918 220.094 74.4078C218.925 74.4237 217.767 74.1715 216.71 73.6703C215.911 73.3111 215.209 72.7676 214.661 72.0844C214.114 71.4012 213.736 70.5978 213.559 69.7402C213.322 68.5464 213.422 67.3102 213.847 66.1698C214.272 65.0294 215.006 64.0297 215.967 63.2823C217.363 63.8735 218.656 64.6849 219.795 65.6856C221.385 67.062 222.537 68.8742 223.107 70.898C223.333 71.7737 223.451 72.6737 223.458 73.578Z" fill="black"/>
<path opacity="0.1" d="M272.179 45.6986C272.183 48.457 271.582 51.1827 270.417 53.6833C269.275 54.821 268.404 56.2023 267.871 57.724C266.589 59.2831 266.081 60.1642 264.37 61.2436C263.683 60.5193 262.137 60.0811 261.856 59.1447C261.141 56.7323 261.547 54.1537 261.584 51.6398C261.584 50.5235 261.427 49.2043 260.444 48.6692C259.628 48.2079 258.599 48.54 257.797 48.9921C256.994 49.4441 256.196 50.0299 255.274 50.136C253.89 50.2929 252.626 49.3196 251.851 48.1756C251.076 47.0317 250.628 45.694 249.895 44.5223C248.926 42.9771 247.496 41.7916 246.09 40.6384C244.48 39.3099 242.916 37.8384 241.2 36.6484C240.176 35.9334 238.949 35.6013 237.939 34.8817L237.777 34.7617C240.099 31.4799 243.405 29.022 247.216 27.7435C251.027 26.4651 255.147 26.4325 258.978 27.6504C262.809 28.8684 266.153 31.2737 268.526 34.5183C270.899 37.763 272.179 41.6786 272.179 45.6986Z" fill="black"/>
<path d="M234.863 24.7659C235.265 22.1043 237.46 19.6088 240.149 19.5627C242.368 19.5258 244.259 21.0295 246.224 22.0582C248.236 23.0951 250.452 23.6743 252.714 23.754C254.975 23.8337 257.227 23.4122 259.306 22.5195C260.515 21.9936 261.737 21.2878 263.052 21.3939C264.366 21.5 265.418 22.3626 266.327 23.239C268.486 25.3741 270.178 27.9345 271.295 30.7578C271.622 31.5881 271.922 32.4738 272.559 33.0965C273.044 33.5031 273.573 33.8543 274.136 34.1436C275.101 34.7833 275.927 35.6095 276.567 36.5736C277.207 37.5378 277.648 38.6202 277.863 39.7573C278.281 42.0439 278.046 44.402 277.185 46.5611C276.675 48.0473 275.832 49.3976 274.722 50.5096C273.883 51.2984 272.877 51.8935 271.996 52.6315C270.56 53.8508 269.465 55.4217 268.819 57.1908C268.172 58.9598 267.995 60.8664 268.306 62.7242C265.852 63.2916 263.499 61.0913 262.77 58.6834C262.042 56.2756 262.461 53.6924 262.498 51.1785C262.498 50.0622 262.341 48.743 261.359 48.2079C260.542 47.7466 259.514 48.0787 258.711 48.5308C257.909 48.9828 257.111 49.5686 256.188 49.6747C254.804 49.8316 253.54 48.8629 252.765 47.7143C251.99 46.5657 251.548 45.2327 250.81 44.061C249.845 42.5157 248.411 41.3303 247.004 40.1771C245.394 38.8532 243.83 37.3771 242.119 36.187C241.09 35.4721 239.863 35.1399 238.853 34.4204C235.804 32.2339 234.863 28.2485 234.863 24.7659Z" fill="#585268"/>
<path opacity="0.1" d="M249.528 56.4139C249.528 56.4139 249.27 56.4739 248.822 56.5984C249.037 56.4749 249.281 56.4112 249.528 56.4139Z" fill="black"/>
<g opacity="0.1">
<path opacity="0.1" d="M263.706 57.1751C262.991 54.7626 263.397 52.1841 263.434 49.6701C263.434 48.5539 263.277 47.2346 262.295 46.6995C261.478 46.2382 260.45 46.575 259.647 47.0224C258.844 47.4699 258.046 48.0603 257.124 48.1664C255.74 48.3232 254.476 47.3545 253.701 46.2106C252.926 45.0666 252.483 43.7243 251.745 42.5527C250.777 41.012 249.347 39.8265 247.94 38.6687C246.33 37.3449 244.766 35.8688 243.055 34.6787C242.026 33.9637 240.799 33.6362 239.789 32.912C236.731 30.7256 235.79 26.7401 235.79 23.2575C235.894 22.5965 236.099 21.9555 236.399 21.3571C235.591 22.2941 235.061 23.4379 234.867 24.6598C234.867 28.1424 235.79 32.1278 238.866 34.3143C239.877 35.0385 241.104 35.366 242.132 36.081C243.844 37.2711 245.407 38.7471 247.017 40.071C248.424 41.2288 249.854 42.4143 250.823 43.9549C251.561 45.1266 251.999 46.4689 252.778 47.6128C253.558 48.7568 254.827 49.7255 256.201 49.5687C257.124 49.4626 257.908 48.8721 258.724 48.4247C259.541 47.9773 260.569 47.659 261.372 48.1018C262.355 48.6369 262.53 49.9469 262.511 51.0724C262.475 53.5864 262.05 56.1464 262.784 58.5774C263.517 61.0083 265.856 63.1901 268.319 62.6181C268.242 62.185 268.193 61.7475 268.171 61.3081C266.123 61.1282 264.32 59.2324 263.706 57.1751Z" fill="black"/>
<path opacity="0.1" d="M275.647 49.0012C274.807 49.7946 273.802 50.3851 272.921 51.1231C271.95 51.9377 271.135 52.9225 270.518 54.0292C270.955 53.4698 271.451 52.9594 271.998 52.5069C272.884 51.7689 273.885 51.1785 274.724 50.3851C275.393 49.7399 275.959 48.9964 276.403 48.1802C276.171 48.4712 275.918 48.7456 275.647 49.0012Z" fill="black"/>
</g>
<path opacity="0.1" d="M250.156 213.658C249.819 214.659 249.339 215.637 249.274 216.693C249.164 218.492 250.262 220.162 250.34 221.966C250.432 224.055 249.159 225.933 247.941 227.639C249.385 227.639 250.963 227.137 251.696 225.896C251.945 225.417 252.127 224.907 252.236 224.378C253.541 219.17 254.81 213.474 252.54 208.612C252.19 207.772 251.681 207.008 251.041 206.361C250.658 208.815 250.981 211.227 250.156 213.658Z" fill="black"/>
<path opacity="0.1" d="M214.076 176.904L210.242 171.733C209.32 170.483 208.365 169.182 208.033 167.664C207.673 165.999 208.093 164.274 208.148 162.59C208.148 162.401 208.148 162.207 208.148 162.014C208.2 161.903 208.259 161.795 208.324 161.691C208.812 160.888 209.352 159.288 209.92 157.147C210.479 157.703 210.913 158.371 211.193 159.108C212.978 163.462 211.326 168.573 212.803 173.038C213.227 174.32 213.919 175.547 214.076 176.904Z" fill="black"/>
<path opacity="0.1" d="M223.832 333.433C225.727 334.79 227.89 335.726 230.177 336.179C232.463 336.631 234.82 336.59 237.089 336.058" fill="black"/>
<path opacity="0.1" d="M255.596 334.194C256.566 335.103 257.711 335.802 258.962 336.25C260.214 336.698 261.543 336.885 262.869 336.798C264.195 336.712 265.489 336.354 266.672 335.748C267.854 335.141 268.899 334.298 269.743 333.271" fill="black"/>
<path opacity="0.1" d="M235.354 264.657C233.514 265.083 231.585 264.9 229.858 264.137C228.13 263.373 226.697 262.07 225.773 260.422" fill="black"/>
<path opacity="0.1" d="M257.219 276.313C260.142 276.53 263.05 275.731 265.453 274.053L257.219 276.313Z" fill="black"/>
<path opacity="0.1" d="M242.298 304.174C239.839 305.17 237.643 306.73 235.249 307.864C232.855 308.999 230.083 309.742 227.551 308.948" fill="black"/>
<path d="M197.516 167.715H194.633V255.726H197.516V167.715Z" fill="#9D9CB5"/>
<path d="M206.474 167.715H203.586V255.726H206.474V167.715Z" fill="#9D9CB5"/>
<path d="M188.253 346.302C190.977 346.302 193.184 344.095 193.184 341.371C193.184 338.648 190.977 336.44 188.253 336.44C185.53 336.44 183.322 338.648 183.322 341.371C183.322 344.095 185.53 346.302 188.253 346.302Z" fill="#535461"/>
<path d="M170.801 251.667C170.801 251.667 175.718 247.668 180.026 249.052C184.335 250.436 195.553 251.819 197.555 258.891C199.557 265.962 197.555 343.613 197.555 343.613C197.555 343.613 188.002 346.095 185.405 344.845C182.808 343.595 183.098 331.929 183.098 331.929L182.333 263.065L170.801 251.667Z" fill="#009966"/>
<path opacity="0.1" d="M170.801 251.667C170.801 251.667 175.718 247.668 180.026 249.052C184.335 250.436 195.553 251.819 197.555 258.891C199.557 265.962 197.555 343.613 197.555 343.613C197.555 343.613 188.002 346.095 185.405 344.845C182.808 343.595 183.098 331.929 183.098 331.929L182.333 263.065L170.801 251.667Z" fill="black"/>
<path d="M215.545 339.637L194.847 344.25L194.631 340.56L194.497 268.107C194.491 264.722 193.706 261.383 192.204 258.35C190.702 255.316 188.522 252.668 185.834 250.611C185.834 250.611 196.549 250.468 204.746 254.172C206.499 254.961 208.257 255.736 210.06 256.4C212.297 257.226 215.333 258.983 215.526 262.452C215.775 266.972 216.643 311.753 216.952 328.054C217.032 331.962 216.558 335.862 215.545 339.637Z" fill="#009966"/>
<path d="M198.096 161.179H193.289V168.711H198.096V161.179Z" fill="#535461"/>
<path opacity="0.1" d="M198.096 161.179H193.289V168.711H198.096V161.179Z" fill="black"/>
<path d="M207.129 162.369H202.322V169.902H207.129V162.369Z" fill="#535461"/>
<path d="M207.122 162.369H202.302C201.405 162.392 200.532 162.667 199.784 163.163C199.036 163.659 198.443 164.356 198.072 165.173C198.003 165.321 197.938 165.473 197.878 165.635L196.817 164.611L194.613 162.48L193.266 161.179C193.266 161.179 202.164 156.681 207.122 162.369Z" fill="#535461"/>
<path d="M209.22 349.776C211.943 349.776 214.151 347.568 214.151 344.845C214.151 342.122 211.943 339.914 209.22 339.914C206.497 339.914 204.289 342.122 204.289 344.845C204.289 347.568 206.497 349.776 209.22 349.776Z" fill="#535461"/>
<path d="M158.308 343.046C161.031 343.046 163.239 340.838 163.239 338.115C163.239 335.391 161.031 333.184 158.308 333.184C155.585 333.184 153.377 335.391 153.377 338.115C153.377 340.838 155.585 343.046 158.308 343.046Z" fill="#535461"/>
<path d="M167.574 250.611C167.574 250.611 153.579 254.301 152.813 289.515C152.047 324.729 151.891 328.414 151.891 328.414C151.891 328.414 152.195 338.562 172.8 344.868H185.407L187.409 263.988C187.409 263.988 185.102 251.667 167.574 250.611Z" fill="#009966"/>
<path opacity="0.1" d="M166.323 305.175C166.323 305.175 162.739 255.939 182.062 255.726L183.874 257.488C183.874 257.488 166.955 251.358 166.323 305.175Z" fill="black"/>
<path d="M175.029 354.075C177.752 354.075 179.96 351.867 179.96 349.144C179.96 346.421 177.752 344.213 175.029 344.213C172.305 344.213 170.098 346.421 170.098 349.144C170.098 351.867 172.305 354.075 175.029 354.075Z" fill="#535461"/>
<path opacity="0.1" d="M202.371 162.341C202.373 162.35 202.373 162.36 202.371 162.369H202.302C201.405 162.392 200.532 162.667 199.784 163.163C199.036 163.659 198.443 164.356 198.072 165.173C198.003 165.321 197.939 165.473 197.879 165.635L196.818 164.611C196.811 164.52 196.811 164.429 196.818 164.338C196.915 163.621 197.289 162.97 197.86 162.526C198.41 162.071 199.067 161.765 199.769 161.638C200.472 161.511 201.195 161.568 201.869 161.801C202.141 161.889 202.422 162.083 202.371 162.341Z" fill="black"/>
</g>
<defs>
<linearGradient id="paint0_linear" x1="249.594" y1="350.722" x2="249.594" y2="18.1189" gradientUnits="userSpaceOnUse">
<stop stop-color="#808080" stop-opacity="0.25"/>
<stop offset="0.54" stop-color="#808080" stop-opacity="0.12"/>
<stop offset="1" stop-color="#808080" stop-opacity="0.1"/>
</linearGradient>
<clipPath id="clip0">
<rect width="442.437" height="377.6" fill="white"/>
</clipPath>
</defs>
</svg>
