<svg width="24" height="16" viewBox="0 0 24 16" fill="none" xmlns="http://www.w3.org/2000/svg">
<path d="M20.594 7.11334C21.8985 7.00572 22.7833 6.41271 23.1238 5.60809C22.6532 5.89714 21.1926 6.21227 20.3859 5.91215C20.3464 5.72262 20.3022 5.54258 20.2589 5.38005C19.6442 3.12304 17.5397 1.3047 15.3346 1.52437C15.513 1.45233 15.6939 1.38527 15.8743 1.32506C16.117 1.23812 17.5411 1.00642 17.3169 0.503749C17.1279 0.061612 15.388 0.837889 15.0604 0.939352C15.4928 0.776709 16.208 0.496945 16.2847 0C15.6221 0.0908789 14.9717 0.404122 14.4691 0.859596C14.6506 0.664285 14.7882 0.426261 14.8174 0.170094C13.0503 1.29903 12.018 3.57506 11.1826 5.78288C10.5266 5.14716 9.94522 4.64654 9.42365 4.36856C7.96046 3.58391 6.21097 2.76524 3.46468 1.74576C3.38039 2.65439 3.91406 3.86254 5.45181 4.66598C5.11865 4.62138 4.50939 4.7209 4.02211 4.83759C4.22055 5.87851 4.86863 6.73611 6.62314 7.15081C5.82132 7.20373 5.40694 7.38619 5.03138 7.77946C5.39657 8.50341 6.28771 9.35545 7.89075 9.18055C6.10849 9.94873 7.16404 11.3713 8.61427 11.1591C6.14029 13.7145 2.23979 13.5267 0 11.3894C5.84795 19.358 18.56 16.102 20.4544 8.42673C21.8738 8.43883 22.7082 7.93508 23.2255 7.37971C22.4078 7.51849 21.2225 7.37507 20.594 7.11334Z" fill="black"/>
</svg>
